<?xml version="1.0" standalone="no"?>
<!DOCTYPE svg PUBLIC "-//W3C//DTD SVG 20010904//EN"
 "http://www.w3.org/TR/2001/REC-SVG-20010904/DTD/svg10.dtd">
<svg version="1.0" xmlns="http://www.w3.org/2000/svg"
 width="407.000000pt" height="407.000000pt" viewBox="0 0 407.000000 407.000000"
 preserveAspectRatio="xMidYMid meet">
<metadata>
Created by potrace 1.11, written by Peter Selinger 2001-2013
</metadata>
<g transform="translate(0.000000,407.000000) scale(0.100000,-0.100000)"
fill="#000000" stroke="none">
<path d="M1754 3934 c-602 -82 -1142 -461 -1433 -1005 -295 -554 -296 -1244 0
-1798 94 -176 178 -290 323 -439 370 -380 847 -582 1376 -582 529 0 1006 202
1376 582 148 153 233 268 328 450 145 277 216 568 216 888 0 449 -150 873
-431 1215 -64 78 -217 230 -294 292 -260 208 -603 354 -941 398 -140 18 -382
18 -520 -1z"/>
</g>
</svg>
